<svg xmlns="http://www.w3.org/2000/svg" viewBox="0 0 64 64" width="64" height="64"><rect x="2.0" y="2" width="60" height="60" fill="#22402F"/><path d="M14.0,22.1 L32,12.200000000000001 L50.0,22.1" fill="none" stroke="#8FA894" stroke-width="4.2"/><path d="M24.307699999999997 43.5338H36.0095L36.1085 45.592999999999996H24.169099999999997ZM26.624299999999998 53.889199999999995Q26.624299999999998 54.305 26.3372 54.552499999999995Q26.0501 54.8 25.4165 54.8H19.199299999999997Q18.585499999999996 54.8 18.2885 54.552499999999995Q17.9915 54.305 17.9915 53.889199999999995Q17.9915 53.5922 18.159799999999997 53.384299999999996Q18.3281 53.176399999999994 18.763699999999996 52.9586L19.417099999999998 52.7012Q20.0111 52.404199999999996 20.337799999999998 51.928999999999995Q20.664499999999997 51.453799999999994 21.040699999999998 50.245999999999995L27.3767 30.881599999999995Q27.634099999999997 30.010399999999994 27.515299999999996 29.624299999999995Q27.396499999999996 29.238199999999996 26.7035 29.000599999999995Q26.149099999999997 28.822399999999995 25.931299999999997 28.574899999999992Q25.713499999999996 28.327399999999994 25.713499999999996 27.970999999999997Q25.713499999999996 27.555199999999996 26.010499999999997 27.317599999999995Q26.307499999999997 27.079999999999995 26.9411 27.079999999999995H36.6035Q37.2371 27.079999999999995 37.534099999999995 27.317599999999995Q37.8311 27.555199999999996 37.8311 27.970999999999997Q37.8311 28.347199999999994 37.60339999999999 28.584799999999994Q37.375699999999995 28.822399999999995 36.8807 28.980799999999995Q36.3461 29.139199999999995 36.2471 29.436199999999996Q36.1481 29.733199999999997 36.365899999999996 30.406399999999994L43.097899999999996 50.7014Q43.414699999999996 51.691399999999994 43.7711 52.1567Q44.1275 52.622 44.7809 52.82Q45.3551 53.0378 45.5531 53.2754Q45.7511 53.513 45.7511 53.889199999999995Q45.7511 54.305 45.4541 54.552499999999995Q45.1571 54.8 44.5235 54.8H35.7917Q35.177899999999994 54.8 34.8809 54.552499999999995Q34.5839 54.305 34.5839 53.889199999999995Q34.5839 53.532799999999995 34.791799999999995 53.315Q34.9997 53.097199999999994 35.4353 52.9586L36.563900000000004 52.721Q37.0787 52.562599999999996 37.058899999999994 52.206199999999995Q37.0391 51.849799999999995 36.8015 51.0776L29.792299999999997 29.455999999999996L30.4457 29.059999999999995L23.6543 49.929199999999994Q23.3969 50.741 23.3969 51.265699999999995Q23.3969 51.7904 23.723599999999998 52.11709999999999Q24.0503 52.443799999999996 24.723499999999998 52.721L25.792699999999996 52.97839999999999Q26.188699999999997 53.136799999999994 26.406499999999998 53.334799999999994Q26.624299999999998 53.532799999999995 26.624299999999998 53.889199999999995Z" fill="#FAF7F1"/></svg>